<?xml version="1.0" encoding="utf-8"?>
<!-- Generator: Adobe Illustrator 22.0.1, SVG Export Plug-In . SVG Version: 6.00 Build 0)  -->
<svg version="1.1" id="레이어_1" xmlns="http://www.w3.org/2000/svg" xmlns:xlink="http://www.w3.org/1999/xlink" x="0px"
	 y="0px" viewBox="0 0 32 32" style="enable-background:new 0 0 32 32;" xml:space="preserve">
<style type="text/css">
	.st0{fill:#F6F6F6;}
</style>
<title>Damage</title>
<g>
	<rect x="2.1" y="28.1" class="st0" width="7.1" height="3.9"/>
	<path class="st0" d="M9.1,7c0,0,0-0.5,0-0.7C8.6,1.5,5.6,0,5.6,0s-3,1.5-3.5,6.3c0,0.2,0,0.7,0,0.7v18.4h3.5h3.5V7z"/>
</g>
<g>
	<rect x="12.5" y="28.1" class="st0" width="7.1" height="3.9"/>
	<path class="st0" d="M19.5,7c0,0,0-0.5,0-0.7C19,1.5,16,0,16,0s-3,1.5-3.5,6.3c0,0.2,0,0.7,0,0.7v18.4H16h3.5V7z"/>
</g>
<g>
	<rect x="22.9" y="28.1" class="st0" width="7.1" height="3.9"/>
	<path class="st0" d="M29.9,7c0,0,0-0.5,0-0.7C29.4,1.5,26.4,0,26.4,0s-3,1.5-3.5,6.3c0,0.2,0,0.7,0,0.7v18.4h3.5h3.5V7z"/>
</g>
</svg>
