<?xml version="1.0" encoding="utf-8"?>
<!-- Generator: Adobe Illustrator 22.0.1, SVG Export Plug-In . SVG Version: 6.00 Build 0)  -->
<svg version="1.1" id="레이어_1" xmlns="http://www.w3.org/2000/svg" xmlns:xlink="http://www.w3.org/1999/xlink" x="0px"
	 y="0px" viewBox="0 0 32 32" style="enable-background:new 0 0 32 32;" xml:space="preserve">
<style type="text/css">
	.st0{fill:#FFFFFF;}
</style>
<g>
	<path class="st0" d="M27.3,12.9L27.3,12.9l-3.8,0V7.8c0-4.3-3.5-7.8-7.8-7.8C11.5,0,8,3.5,8,7.8v5.1H4.7v0c-0.4,0-0.7,0.3-0.7,0.7
		v1.7c0,6.3,4.9,11.5,11.1,12v1.9h-4.2c-0.8,0-1.4,0.6-1.4,1.4c0,0.8,0.6,1.4,1.4,1.4h9.9c0.8,0,1.4-0.6,1.4-1.4
		c0-0.8-0.6-1.4-1.4-1.4h-4.2v-1.8c6.4-0.2,11.5-5.5,11.5-12v-1.7C28,13.2,27.7,12.9,27.3,12.9z M15.8,1.4c3.4,0,6.2,2.7,6.3,6h-3
		c-0.4,0-0.7,0.3-0.7,0.7c0,0.4,0.3,0.7,0.7,0.7h3.1v2.4h-3.1c-0.4,0-0.7,0.3-0.7,0.7s0.3,0.7,0.7,0.7h3.1v2.4h-3.1
		c-0.4,0-0.7,0.3-0.7,0.7c0,0.4,0.3,0.7,0.7,0.7h3c-0.3,3.2-3,5.8-6.3,5.8s-6-2.5-6.3-5.8h3c0.4,0,0.7-0.3,0.7-0.7
		c0-0.4-0.3-0.7-0.7-0.7H9.4v-2.4h3.1c0.4,0,0.7-0.3,0.7-0.7s-0.3-0.7-0.7-0.7H9.4V8.8h3.1c0.4,0,0.7-0.3,0.7-0.7
		c0-0.4-0.3-0.7-0.7-0.7h-3C9.6,4.1,12.4,1.4,15.8,1.4z M16,25.9c-5.8,0-10.6-4.7-10.6-10.6v-1H8v1.5c0,4.3,3.5,7.8,7.8,7.8
		c4.3,0,7.8-3.5,7.8-7.8v-1.5h3.1v1C26.6,21.2,21.8,25.9,16,25.9z"/>
</g>
</svg>
