<?xml version="1.0" encoding="utf-8"?>
<!-- Generator: Adobe Illustrator 22.0.1, SVG Export Plug-In . SVG Version: 6.00 Build 0)  -->
<svg version="1.1" id="레이어_1" xmlns="http://www.w3.org/2000/svg" xmlns:xlink="http://www.w3.org/1999/xlink" x="0px"
	 y="0px" viewBox="0 0 32 32" style="enable-background:new 0 0 32 32;" xml:space="preserve">
<style type="text/css">
	.st0{fill:rgb(64,82,117);}
</style>
<g>
	<path class="st0" d="M28.1,18.3c-1,0-1.9,0.8-1.9,1.9v6.1c0,1-0.8,1.9-1.9,1.9H5.7c-1,0-1.9-0.8-1.9-1.9V7.5c0-1,0.8-1.9,1.9-1.9
		h6.7c1,0,1.9-0.8,1.9-1.9s-0.8-1.9-1.9-1.9H5.7C2.6,1.9,0,4.4,0,7.5v18.7c0,3.1,2.5,5.6,5.6,5.6h18.7c3.1,0,5.6-2.5,5.6-5.6v-6.1
		C30,19.1,29.2,18.3,28.1,18.3z"/>
	<path class="st0" d="M31.9,1.5c0-0.1-0.1-0.1-0.1-0.2c-0.1-0.1-0.2-0.3-0.3-0.4c0,0-0.1-0.1-0.1-0.1c-0.1-0.1-0.3-0.3-0.5-0.3
		c0,0,0,0,0,0c0,0,0,0,0,0c-0.2-0.1-0.4-0.1-0.6-0.1c0,0,0,0-0.1,0H19.6c-1,0-1.9,0.8-1.9,1.9s0.8,1.9,1.9,1.9h6.1l-8.2,8.2
		c-0.7,0.7-0.7,1.9,0,2.6c0.4,0.4,0.8,0.5,1.3,0.5c0.5,0,1-0.2,1.3-0.5l8.2-8.2v5.8c0,1,0.8,1.9,1.9,1.9s1.9-0.8,1.9-1.9V2.2
		C32,2,32,1.7,31.9,1.5z"/>
</g>
</svg>
