<?xml version="1.0" encoding="utf-8"?>
<!-- Generator: Adobe Illustrator 22.0.1, SVG Export Plug-In . SVG Version: 6.00 Build 0)  -->
<svg version="1.1" id="레이어_1" xmlns="http://www.w3.org/2000/svg" xmlns:xlink="http://www.w3.org/1999/xlink" x="0px"
	 y="0px" viewBox="0 0 32 32" style="enable-background:new 0 0 32 32;" xml:space="preserve">
<style type="text/css">
	.st0{fill:#F6F6F6;}
</style>
<title>Tank</title>
<path class="st0" d="M29,10.7c0,2.1,0,4.1,0,6.2c0,0.6-0.1,1.1-0.4,1.6c-2.9,5.3-6.8,9.7-11.8,13.2c-0.6,0.4-1,0.4-1.6,0
	c-4.9-3.4-8.8-7.8-11.7-13c-0.3-0.6-0.4-1.2-0.4-1.8c0-3.9,0.1-7.8,0-11.7C3,2.3,5.2,1.9,7.1,1.4C10.4,0.6,13.3,0,16.6,0
	c3.1,0,7.7,1.1,9.4,1.6c1.3,0.4,2.7,0.9,2.9,2.2C29,4.9,28.9,6,29,7.1C29,8.3,29,9.5,29,10.7L29,10.7z"/>
</svg>
